<svg width="22" height="21" viewBox="0 0 22 21" fill="none" xmlns="http://www.w3.org/2000/svg">
<g filter="url(#filter0_d_8_31)">
<path d="M11.8766 1.66848C11.3944 1.39934 10.7855 1.57207 10.5163 2.05422C10.2472 2.53645 10.4198 3.14543 10.902 3.41457C11.439 3.71432 12.264 4.31986 12.9968 4.98586C13.3593 5.3154 13.6794 5.64179 13.9196 5.93313C13.9758 6.00122 14.0243 6.06405 14.0661 6.12063C13.5157 6.76955 12.8795 7.25029 12.3884 7.59328L12.3532 7.61868L12.32 7.64602C12.0972 7.83215 12.0281 7.91003 11.8386 8.0425C11.6776 8.15494 11.4383 8.29367 11.0358 8.44582C10.5193 8.64113 10.2586 9.21835 10.4538 9.73489C10.6491 10.2514 11.2263 10.5121 11.7429 10.3169C12.8457 9.90001 13.286 9.44985 13.5817 9.19875C14.2334 8.74115 15.2751 7.95608 16.0788 6.78078L16.3493 6.38625L16.2106 5.92825C16.0723 5.46963 15.7638 5.02592 15.4626 4.66067C15.1431 4.27322 14.7497 3.87738 14.3415 3.50637C13.5324 2.77101 12.584 2.06333 11.8766 1.66848ZM8.09149 1.66848C7.60929 1.39933 7.00035 1.57208 6.73114 2.05422C6.46197 2.53647 6.63463 3.1454 7.11688 3.41457C7.65384 3.71437 8.47894 4.31996 9.21161 4.98586C9.57411 5.31534 9.89425 5.64184 10.1345 5.93313C10.1905 6.00115 10.2391 6.06409 10.2809 6.12063C9.73059 6.76956 9.09432 7.25028 8.60321 7.59328L8.56805 7.61868L8.53485 7.64602C8.31195 7.83218 8.2429 7.91006 8.05341 8.0425C7.89247 8.15494 7.65313 8.29365 7.25067 8.44582C6.7341 8.64108 6.47345 9.2183 6.66864 9.73489C6.86399 10.2514 7.44116 10.5122 7.9577 10.3169C9.0606 9.89997 9.50086 9.44981 9.79657 9.19875C10.4483 8.74112 11.49 7.95609 12.2936 6.78078L12.5641 6.38625L12.4255 5.92825C12.2872 5.4697 11.9786 5.02589 11.6774 4.66067C11.358 4.27328 10.9645 3.87732 10.5563 3.50637C9.74734 2.7711 8.7988 2.06335 8.09149 1.66848Z" fill="black"/>
</g>
<g filter="url(#filter1_d_8_31)">
<ellipse cx="11" cy="6.5" rx="7" ry="6.5" fill="white" fill-opacity="0.23" shape-rendering="crispEdges"/>
</g>
<defs>
<filter id="filter0_d_8_31" x="0" y="0" width="22" height="21" filterUnits="userSpaceOnUse" color-interpolation-filters="sRGB">
<feFlood flood-opacity="0" result="BackgroundImageFix"/>
<feColorMatrix in="SourceAlpha" type="matrix" values="0 0 0 0 0 0 0 0 0 0 0 0 0 0 0 0 0 0 127 0" result="hardAlpha"/>
<feOffset dy="4"/>
<feGaussianBlur stdDeviation="2"/>
<feComposite in2="hardAlpha" operator="out"/>
<feColorMatrix type="matrix" values="0 0 0 0 0 0 0 0 0 0 0 0 0 0 0 0 0 0 0.25 0"/>
<feBlend mode="normal" in2="BackgroundImageFix" result="effect1_dropShadow_8_31"/>
<feBlend mode="normal" in="SourceGraphic" in2="effect1_dropShadow_8_31" result="shape"/>
</filter>
<filter id="filter1_d_8_31" x="0" y="0" width="22" height="21" filterUnits="userSpaceOnUse" color-interpolation-filters="sRGB">
<feFlood flood-opacity="0" result="BackgroundImageFix"/>
<feColorMatrix in="SourceAlpha" type="matrix" values="0 0 0 0 0 0 0 0 0 0 0 0 0 0 0 0 0 0 127 0" result="hardAlpha"/>
<feOffset dy="4"/>
<feGaussianBlur stdDeviation="2"/>
<feComposite in2="hardAlpha" operator="out"/>
<feColorMatrix type="matrix" values="0 0 0 0 0 0 0 0 0 0 0 0 0 0 0 0 0 0 0.25 0"/>
<feBlend mode="normal" in2="BackgroundImageFix" result="effect1_dropShadow_8_31"/>
<feBlend mode="normal" in="SourceGraphic" in2="effect1_dropShadow_8_31" result="shape"/>
</filter>
</defs>
</svg>
