<svg width="22" height="21" viewBox="0 0 22 21" fill="none" xmlns="http://www.w3.org/2000/svg">
<path d="M10.4473 2.12819C10.9287 1.85857 11.5384 2.02983 11.8086 2.511C12.0786 2.99238 11.9069 3.6019 11.4258 3.87233C10.8928 4.17157 10.073 4.77699 9.34473 5.44264C8.98448 5.77195 8.6655 6.09876 8.42676 6.38991C8.37067 6.45834 8.32201 6.52156 8.28027 6.57838C8.65983 7.02891 9.07902 7.39954 9.46484 7.69753L9.94824 8.05299L9.98438 8.07741L10.0166 8.10573C10.2385 8.29215 10.3069 8.36895 10.4951 8.50124C10.6547 8.61339 10.8922 8.75257 11.292 8.90456C11.8077 9.10098 12.0669 9.67869 11.8711 10.1946C11.6748 10.7106 11.0971 10.9697 10.5811 10.7737C9.48711 10.3578 9.04764 9.9089 8.75391 9.65749C8.10597 9.20005 7.06793 8.41384 6.26758 7.23659L6 6.84303L6.13672 6.38795C6.27409 5.93023 6.58139 5.48664 6.88086 5.12135C7.1985 4.734 7.58936 4.337 7.99512 3.96608C8.79947 3.23087 9.74366 2.52318 10.4473 2.12819ZM14.21 2.12819C14.6914 1.85839 15.301 2.02985 15.5713 2.511C15.8413 2.99246 15.6698 3.60197 15.1885 3.87233C14.6554 4.1716 13.8357 4.77692 13.1074 5.44264C12.7471 5.77201 12.4282 6.09871 12.1895 6.38991C12.1333 6.4584 12.0847 6.52152 12.043 6.57838C12.4225 7.02885 12.8418 7.39956 13.2275 7.69753L13.7109 8.05299L13.7471 8.07741L13.7793 8.10573C14.0012 8.29211 14.0697 8.36902 14.2578 8.50124C14.4174 8.61339 14.6549 8.75256 15.0547 8.90456C15.5705 9.10091 15.8297 9.67859 15.6338 10.1946C15.4374 10.7106 14.8599 10.9698 14.3438 10.7737C13.2498 10.3578 12.8103 9.90889 12.5166 9.65749C11.8687 9.20004 10.8306 8.41375 10.0303 7.23659L9.7627 6.84303L9.89941 6.38795C10.0368 5.9302 10.3441 5.48667 10.6436 5.12135C10.9612 4.73395 11.352 4.33705 11.7578 3.96608C12.5622 3.23081 13.5063 2.52321 14.21 2.12819Z" fill="black"/>
<g filter="url(#filter0_dd_1_378)">
<ellipse cx="11" cy="6.5" rx="7" ry="6.5" fill="white" fill-opacity="0.23" shape-rendering="crispEdges"/>
</g>
<defs>
<filter id="filter0_dd_1_378" x="0" y="0" width="22" height="21" filterUnits="userSpaceOnUse" color-interpolation-filters="sRGB">
<feFlood flood-opacity="0" result="BackgroundImageFix"/>
<feColorMatrix in="SourceAlpha" type="matrix" values="0 0 0 0 0 0 0 0 0 0 0 0 0 0 0 0 0 0 127 0" result="hardAlpha"/>
<feOffset dy="4"/>
<feGaussianBlur stdDeviation="2"/>
<feComposite in2="hardAlpha" operator="out"/>
<feColorMatrix type="matrix" values="0 0 0 0 0 0 0 0 0 0 0 0 0 0 0 0 0 0 0.25 0"/>
<feBlend mode="normal" in2="BackgroundImageFix" result="effect1_dropShadow_1_378"/>
<feColorMatrix in="SourceAlpha" type="matrix" values="0 0 0 0 0 0 0 0 0 0 0 0 0 0 0 0 0 0 127 0" result="hardAlpha"/>
<feOffset dy="4"/>
<feGaussianBlur stdDeviation="2"/>
<feComposite in2="hardAlpha" operator="out"/>
<feColorMatrix type="matrix" values="0 0 0 0 0 0 0 0 0 0 0 0 0 0 0 0 0 0 0.25 0"/>
<feBlend mode="normal" in2="effect1_dropShadow_1_378" result="effect2_dropShadow_1_378"/>
<feBlend mode="normal" in="SourceGraphic" in2="effect2_dropShadow_1_378" result="shape"/>
</filter>
</defs>
</svg>
